<?xml version="1.0" encoding="UTF-8"?>
<svg id="Layer_1" data-name="Layer 1" xmlns="http://www.w3.org/2000/svg" viewBox="0 0 800 800">
  <defs>
    <style>
      .cls-1 {
        fill: #cfb755;
      }

      .cls-2 {
        fill: none;
        stroke: #cfb755;
        stroke-miterlimit: 10;
        stroke-width: .25px;
      }
    </style>
  </defs>
  <polygon class="cls-1" points="353.7 383.08 318.37 321.88 259.76 355.71 259.76 288.04 189.09 288.04 189.09 355.71 130.48 321.88 95.14 383.08 153.75 416.92 95.14 450.76 130.48 511.96 187.46 479.06 189.09 432.71 185.11 432.71 185.11 425.3 198.59 425.3 198.59 396.49 185.11 396.49 224.42 359.99 263.73 396.49 250.25 396.49 250.25 425.3 263.73 425.3 263.73 432.71 259.75 432.71 261.38 479.06 318.37 511.96 353.7 450.76 295.09 416.92 353.7 383.08"/>
  <line class="cls-2" x1="400.8" y1="288.04" x2="400.8" y2="511.96"/>
  <g>
    <g>
      <path class="cls-1" d="M449.5,340.29h6.3v28.61h16.45v5.65h-22.74v-34.27Z"/>
      <path class="cls-1" d="M475.58,341.27h6.3v4.5h-6.3v-4.5ZM475.58,348.85h6.3v25.7h-6.3v-25.7Z"/>
      <path class="cls-1" d="M491.99,382.69c-1.83-.77-3.25-1.83-4.26-3.19-1.01-1.36-1.52-2.88-1.52-4.56v-.9h6.3v1.11c0,1,.53,1.82,1.58,2.46,1.06.64,2.41.96,4.07.96,1.86,0,3.38-.46,4.56-1.39,1.18-.93,1.78-2.11,1.78-3.53v-3.73h-.34c-.71.89-1.78,1.61-3.21,2.16-1.43.56-2.98.84-4.67.84-2.03,0-3.83-.4-5.42-1.2-1.58-.8-2.82-1.92-3.7-3.36-.89-1.44-1.33-3.09-1.33-4.95v-5.57c0-1.83.45-3.47,1.35-4.93.9-1.46,2.16-2.6,3.77-3.43,1.61-.83,3.45-1.24,5.5-1.24,1.77,0,3.35.34,4.75,1.01,1.4.67,2.51,1.59,3.34,2.76h.21l.56-3.17h5.48v24.59c0,1.97-.54,3.75-1.61,5.33-1.07,1.58-2.56,2.83-4.45,3.73-1.9.9-4.06,1.35-6.49,1.35s-4.43-.39-6.25-1.16ZM494.04,366.31c1.14.84,2.61,1.26,4.41,1.26s3.22-.41,4.35-1.22c1.13-.81,1.69-1.88,1.69-3.19v-4.88c0-1.34-.57-2.46-1.71-3.34-1.14-.88-2.6-1.33-4.37-1.33s-3.26.44-4.39,1.31c-1.13.87-1.69,1.98-1.69,3.32v4.8c0,1.34.57,2.43,1.71,3.28Z"/>
      <path class="cls-1" d="M516.27,340.29h6.3v11.52h.34c.77-1.06,1.83-1.91,3.17-2.57,1.34-.66,2.77-.99,4.28-.99,1.94,0,3.68.46,5.2,1.37,1.53.91,2.72,2.18,3.58,3.81.86,1.63,1.29,3.47,1.29,5.53v15.59h-6.3v-14.78c0-1.71-.54-3.12-1.61-4.22-1.07-1.1-2.45-1.65-4.13-1.65s-3.11.56-4.2,1.69c-1.09,1.13-1.63,2.55-1.63,4.26v14.69h-6.3v-34.27Z"/>
      <path class="cls-1" d="M551.57,373.31c-1.49-.83-2.64-1.98-3.47-3.45-.83-1.47-1.24-3.15-1.24-5.03v-10.41h-3.94v-5.57h4.58l1.2-5.01h4.5v5.01h11.95v5.57h-11.95v9.85c0,1.4.44,2.53,1.31,3.4.87.87,1.99,1.31,3.36,1.31h7.28v5.57h-8.52c-1.88,0-3.57-.41-5.05-1.24Z"/>
      <path class="cls-1" d="M569,340.29h6.3v11.52h.34c.77-1.06,1.83-1.91,3.17-2.57,1.34-.66,2.77-.99,4.28-.99,1.94,0,3.68.46,5.2,1.37,1.53.91,2.72,2.18,3.58,3.81.86,1.63,1.29,3.47,1.29,5.53v15.59h-6.3v-14.78c0-1.71-.54-3.12-1.61-4.22s-2.45-1.65-4.13-1.65-3.11.56-4.2,1.69c-1.09,1.13-1.63,2.55-1.63,4.26v14.69h-6.3v-34.27Z"/>
      <path class="cls-1" d="M602.51,373.89c-1.9-.93-3.38-2.22-4.45-3.88-1.07-1.66-1.61-3.56-1.61-5.7v-5.23c0-2.14.54-4.04,1.61-5.7,1.07-1.66,2.55-2.95,4.45-3.88,1.9-.93,4.08-1.39,6.53-1.39s4.63.46,6.53,1.39c1.9.93,3.38,2.22,4.45,3.88,1.07,1.66,1.61,3.55,1.61,5.7v5.23c0,2.14-.54,4.04-1.61,5.7-1.07,1.66-2.56,2.95-4.45,3.88-1.9.93-4.08,1.39-6.53,1.39s-4.63-.46-6.53-1.39ZM604.51,368.26c1.17.97,2.68,1.46,4.54,1.46s3.37-.49,4.54-1.46c1.17-.97,1.76-2.21,1.76-3.73v-5.65c0-1.51-.59-2.76-1.76-3.73-1.17-.97-2.68-1.46-4.54-1.46s-3.37.49-4.54,1.46c-1.17.97-1.76,2.21-1.76,3.73v5.65c0,1.51.58,2.76,1.76,3.73Z"/>
      <path class="cls-1" d="M629.18,373.8c-1.51-.9-2.68-2.15-3.51-3.75-.83-1.6-1.24-3.43-1.24-5.48v-15.72h6.3v15.12c0,1.66.54,3.03,1.61,4.11,1.07,1.09,2.45,1.63,4.13,1.63s3.11-.56,4.2-1.67c1.08-1.11,1.63-2.51,1.63-4.2v-14.99h6.3v25.7h-5.65l-.34-3.3h-.17c-.89,1.23-2.01,2.18-3.38,2.87s-2.93,1.03-4.67,1.03c-1.94,0-3.67-.45-5.18-1.35Z"/>
      <path class="cls-1" d="M658.71,374.21c-1.87-.69-3.32-1.66-4.35-2.93-1.03-1.27-1.54-2.73-1.54-4.39v-1.11h6.55v1.33c0,.89.51,1.64,1.54,2.27,1.03.63,2.38.94,4.07.94,1.57,0,2.88-.27,3.92-.81,1.04-.54,1.56-1.23,1.56-2.06s-.5-1.46-1.5-1.91c-1-.44-2.61-.96-4.84-1.56-2.31-.6-4.2-1.18-5.65-1.74-1.46-.56-2.72-1.36-3.79-2.42-1.07-1.06-1.61-2.43-1.61-4.11,0-2.4,1.05-4.26,3.15-5.59,2.1-1.33,4.89-1.99,8.37-1.99,2.4,0,4.5.34,6.3,1.03,1.8.69,3.18,1.66,4.15,2.91.97,1.26,1.46,2.71,1.46,4.37v1.11h-6.34v-1.33c0-.86-.49-1.59-1.48-2.21s-2.32-.92-4-.92c-1.54,0-2.77.25-3.68.75-.91.5-1.37,1.16-1.37,1.99s.52,1.53,1.56,2.01c1.04.49,2.69,1.01,4.95,1.58,2.26.57,4.1,1.13,5.55,1.67,1.44.54,2.68,1.34,3.73,2.4,1.04,1.06,1.56,2.41,1.56,4.07,0,2.48-1.08,4.38-3.23,5.7-2.16,1.31-5,1.97-8.55,1.97-2.46,0-4.62-.34-6.49-1.03Z"/>
      <path class="cls-1" d="M685.87,373.78c-1.93-.91-3.43-2.19-4.52-3.83-1.09-1.64-1.63-3.52-1.63-5.63v-5.23c0-2.11.54-3.99,1.61-5.63,1.07-1.64,2.57-2.92,4.5-3.83,1.93-.91,4.12-1.37,6.57-1.37s4.58.43,6.47,1.28c1.88.86,3.35,2.06,4.41,3.6,1.06,1.54,1.58,3.3,1.58,5.27v3.77h-18.85v2.57c0,1.49.61,2.7,1.82,3.64,1.21.94,2.82,1.41,4.82,1.41,1.68,0,3.09-.39,4.22-1.16,1.13-.77,1.69-1.73,1.69-2.87v-1.63h6.3v1.41c0,1.86-.53,3.51-1.58,4.97-1.06,1.46-2.52,2.59-4.39,3.4-1.87.81-4,1.22-6.4,1.22s-4.69-.46-6.62-1.37ZM698.35,358.58v-1.46c-.26-1.08-.91-1.96-1.97-2.61-1.06-.66-2.36-.99-3.9-.99s-2.8.32-3.85.96c-1.06.64-1.77,1.52-2.14,2.63v1.46h11.86Z"/>
    </g>
    <g>
      <path class="cls-1" d="M449.5,384.63h6.26v13.79h14.04v-13.79h6.26v34.04h-6.26v-14.64h-14.04v14.64h-6.26v-34.04Z"/>
      <path class="cls-1" d="M486.07,417.91c-1.92-.91-3.41-2.18-4.49-3.81-1.08-1.63-1.62-3.5-1.62-5.6v-5.19c0-2.1.53-3.96,1.6-5.6,1.06-1.63,2.55-2.9,4.47-3.81,1.92-.91,4.09-1.36,6.53-1.36s4.55.43,6.43,1.28c1.87.85,3.33,2.04,4.38,3.57,1.05,1.53,1.57,3.28,1.57,5.23v3.74h-18.72v2.55c0,1.48.6,2.68,1.81,3.62,1.21.94,2.8,1.4,4.79,1.4,1.67,0,3.07-.38,4.19-1.15,1.12-.77,1.68-1.72,1.68-2.85v-1.62h6.26v1.4c0,1.84-.53,3.49-1.57,4.94-1.05,1.45-2.5,2.58-4.36,3.38-1.86.81-3.98,1.21-6.36,1.21s-4.66-.45-6.57-1.36ZM498.48,402.81v-1.45c-.26-1.08-.91-1.94-1.96-2.6-1.05-.65-2.34-.98-3.87-.98s-2.78.32-3.83.96c-1.05.64-1.76,1.51-2.13,2.62v1.45h11.79Z"/>
      <path class="cls-1" d="M512.35,418.23c-1.45-.67-2.57-1.58-3.38-2.74-.81-1.16-1.21-2.48-1.21-3.96v-2.38c0-1.48.4-2.79,1.21-3.94.81-1.15,1.93-2.04,3.36-2.68,1.43-.64,3.07-.96,4.92-.96,1.62,0,3.12.21,4.51.64,1.39.43,2.45.99,3.19,1.7h.34v-3.49c0-.91-.52-1.66-1.57-2.26-1.05-.6-2.38-.89-4-.89s-2.89.28-3.89.85c-1.01.57-1.51,1.31-1.51,2.21v.6h-6.04v-.38c0-1.53.5-2.92,1.49-4.17.99-1.25,2.37-2.22,4.13-2.91,1.76-.7,3.74-1.04,5.96-1.04s4.26.36,6.04,1.08c1.79.72,3.18,1.72,4.17,3,.99,1.28,1.49,2.7,1.49,4.26v17.91h-5.62l-.3-2.77h-.21c-.79,1.05-1.89,1.87-3.28,2.45-1.39.58-3.01.87-4.85.87s-3.49-.33-4.94-1ZM515.56,413.61c1.04.6,2.38.89,4.02.89s3.04-.3,4.11-.89c1.06-.6,1.6-1.35,1.6-2.26v-2c0-.91-.53-1.65-1.6-2.23-1.06-.58-2.43-.87-4.11-.87s-2.99.28-4.02.85c-1.04.57-1.55,1.31-1.55,2.21v2.04c0,.91.52,1.66,1.55,2.26Z"/>
      <path class="cls-1" d="M536.39,384.63h6.26v34.04h-6.26v-34.04Z"/>
      <path class="cls-1" d="M554.31,417.44c-1.48-.82-2.62-1.96-3.45-3.43-.82-1.46-1.23-3.13-1.23-5v-10.34h-3.91v-5.53h4.55l1.19-4.98h4.47v4.98h11.87v5.53h-11.87v9.79c0,1.39.43,2.52,1.3,3.38.87.87,1.98,1.3,3.34,1.3h7.23v5.53h-8.47c-1.87,0-3.55-.41-5.02-1.23Z"/>
      <path class="cls-1" d="M571.63,384.63h6.26v11.45h.34c.77-1.05,1.81-1.9,3.15-2.55,1.33-.65,2.75-.98,4.26-.98,1.93,0,3.65.45,5.17,1.36,1.52.91,2.7,2.17,3.55,3.79.85,1.62,1.28,3.45,1.28,5.49v15.49h-6.26v-14.68c0-1.7-.53-3.1-1.6-4.19-1.06-1.09-2.43-1.64-4.11-1.64s-3.09.56-4.17,1.68c-1.08,1.12-1.62,2.53-1.62,4.23v14.6h-6.26v-34.04Z"/>
      <path class="cls-1" d="M604.9,418.02c-1.9-.92-3.38-2.21-4.43-3.85-1.05-1.65-1.57-3.53-1.57-5.66v-5.19c0-2.13.52-4.01,1.57-5.66,1.05-1.64,2.53-2.93,4.45-3.85,1.92-.92,4.12-1.38,6.62-1.38s4.64.42,6.53,1.26c1.89.84,3.35,2.01,4.38,3.53,1.04,1.52,1.55,3.26,1.55,5.21v1.91h-6.26v-2.13c0-1.25-.57-2.26-1.7-3.04-1.13-.78-2.6-1.17-4.38-1.17-1.93,0-3.5.48-4.7,1.43-1.21.95-1.81,2.18-1.81,3.68v5.62c0,1.5.6,2.73,1.81,3.68,1.21.95,2.76,1.43,4.66,1.43,1.79,0,3.26-.39,4.4-1.17,1.15-.78,1.72-1.79,1.72-3.04v-2.13h6.26v1.91c0,1.96-.53,3.7-1.57,5.21-1.05,1.52-2.52,2.7-4.4,3.53-1.89.84-4.06,1.26-6.53,1.26s-4.7-.46-6.6-1.38Z"/>
      <path class="cls-1" d="M631.41,418.23c-1.45-.67-2.57-1.58-3.38-2.74-.81-1.16-1.21-2.48-1.21-3.96v-2.38c0-1.48.4-2.79,1.21-3.94.81-1.15,1.93-2.04,3.36-2.68,1.43-.64,3.07-.96,4.92-.96,1.62,0,3.12.21,4.51.64,1.39.43,2.45.99,3.19,1.7h.34v-3.49c0-.91-.52-1.66-1.57-2.26-1.05-.6-2.38-.89-4-.89s-2.89.28-3.89.85c-1.01.57-1.51,1.31-1.51,2.21v.6h-6.04v-.38c0-1.53.5-2.92,1.49-4.17.99-1.25,2.37-2.22,4.13-2.91,1.76-.7,3.74-1.04,5.96-1.04s4.26.36,6.04,1.08c1.79.72,3.18,1.72,4.17,3,.99,1.28,1.49,2.7,1.49,4.26v17.91h-5.62l-.3-2.77h-.21c-.79,1.05-1.89,1.87-3.28,2.45-1.39.58-3.01.87-4.85.87s-3.49-.33-4.94-1ZM634.63,413.61c1.04.6,2.38.89,4.02.89s3.04-.3,4.11-.89c1.06-.6,1.6-1.35,1.6-2.26v-2c0-.91-.53-1.65-1.6-2.23-1.06-.58-2.43-.87-4.11-.87s-2.99.28-4.02.85c-1.04.57-1.55,1.31-1.55,2.21v2.04c0,.91.52,1.66,1.55,2.26Z"/>
      <path class="cls-1" d="M655.46,393.15h5.45l.51,3.19h.17c.82-1.19,1.85-2.13,3.09-2.81,1.23-.68,2.63-1.02,4.19-1.02,1.73,0,3.28.43,4.64,1.28,1.36.85,2.43,2.04,3.21,3.57.78,1.53,1.17,3.26,1.17,5.19v4.55h-6.26v-3.96c0-1.47-.46-2.69-1.38-3.64-.92-.95-2.09-1.43-3.51-1.43s-2.68.53-3.62,1.6c-.94,1.06-1.4,2.36-1.4,3.89v15.11h-6.26v-25.53Z"/>
      <path class="cls-1" d="M685.99,417.91c-1.92-.91-3.41-2.18-4.49-3.81-1.08-1.63-1.62-3.5-1.62-5.6v-5.19c0-2.1.53-3.96,1.6-5.6,1.06-1.63,2.55-2.9,4.47-3.81,1.92-.91,4.09-1.36,6.53-1.36s4.55.43,6.43,1.28c1.87.85,3.33,2.04,4.38,3.57,1.05,1.53,1.57,3.28,1.57,5.23v3.74h-18.72v2.55c0,1.48.6,2.68,1.81,3.62,1.21.94,2.8,1.4,4.79,1.4,1.67,0,3.07-.38,4.19-1.15,1.12-.77,1.68-1.72,1.68-2.85v-1.62h6.26v1.4c0,1.84-.53,3.49-1.57,4.94-1.05,1.45-2.5,2.58-4.36,3.38-1.86.81-3.98,1.21-6.36,1.21s-4.66-.45-6.57-1.36ZM698.39,402.81v-1.45c-.26-1.08-.91-1.94-1.96-2.6-1.05-.65-2.34-.98-3.87-.98s-2.78.32-3.83.96c-1.05.64-1.76,1.51-2.13,2.62v1.45h11.79Z"/>
    </g>
    <g>
      <path class="cls-1" d="M455.84,458.46c-1.99-.84-3.54-2-4.66-3.49-1.12-1.49-1.68-3.18-1.68-5.09v-2.13h6.26v2.3c0,.71.3,1.38.89,2.02.6.64,1.4,1.15,2.43,1.53,1.02.38,2.16.57,3.4.57,1.96,0,3.59-.37,4.89-1.11,1.3-.74,1.96-1.73,1.96-2.98,0-.88-.34-1.66-1.02-2.34-.68-.68-1.53-1.28-2.55-1.79-1.02-.51-2.41-1.11-4.17-1.79-2.47-.99-4.47-1.9-6-2.72-1.53-.82-2.84-1.91-3.94-3.26-1.09-1.35-1.64-2.99-1.64-4.92s.52-3.49,1.57-4.85c1.05-1.36,2.51-2.4,4.38-3.13,1.87-.72,4.01-1.08,6.43-1.08s4.65.41,6.55,1.23c1.9.82,3.38,1.98,4.45,3.47,1.06,1.49,1.6,3.21,1.6,5.17v1.62h-6.09v-1.83c0-1.16-.6-2.14-1.81-2.94-1.21-.79-2.74-1.19-4.62-1.19s-3.31.32-4.47.96c-1.16.64-1.75,1.51-1.75,2.62,0,.88.33,1.64,1,2.28.67.64,1.51,1.2,2.53,1.68,1.02.48,2.4,1.04,4.13,1.66,2.47.94,4.47,1.8,6.02,2.6,1.55.79,2.87,1.87,3.98,3.21,1.11,1.35,1.66,3.01,1.66,5s-.56,3.77-1.68,5.28c-1.12,1.5-2.67,2.66-4.64,3.47-1.97.81-4.21,1.21-6.7,1.21s-4.74-.42-6.72-1.26Z"/>
      <path class="cls-1" d="M483.95,458.33c-1.89-.92-3.36-2.21-4.43-3.85-1.06-1.64-1.6-3.53-1.6-5.66v-5.19c0-2.13.53-4.01,1.6-5.66,1.06-1.64,2.54-2.93,4.43-3.85,1.89-.92,4.05-1.38,6.49-1.38s4.6.46,6.49,1.38c1.89.92,3.36,2.21,4.43,3.85,1.06,1.65,1.6,3.53,1.6,5.66v5.19c0,2.13-.53,4.01-1.6,5.66-1.06,1.65-2.54,2.93-4.43,3.85-1.89.92-4.05,1.38-6.49,1.38s-4.6-.46-6.49-1.38ZM485.92,452.73c1.16.96,2.67,1.45,4.51,1.45s3.35-.48,4.51-1.45c1.16-.96,1.74-2.2,1.74-3.7v-5.62c0-1.5-.58-2.74-1.74-3.7-1.16-.96-2.67-1.45-4.51-1.45s-3.35.48-4.51,1.45c-1.16.96-1.74,2.2-1.74,3.7v5.62c0,1.5.58,2.74,1.74,3.7Z"/>
      <path class="cls-1" d="M506.86,424.95h6.26v34.04h-6.26v-34.04Z"/>
      <path class="cls-1" d="M522.69,458.25c-1.5-.89-2.67-2.13-3.49-3.72-.82-1.59-1.23-3.4-1.23-5.45v-15.62h6.26v15.02c0,1.65.53,3.01,1.6,4.09,1.06,1.08,2.43,1.62,4.11,1.62s3.09-.55,4.17-1.66c1.08-1.11,1.62-2.5,1.62-4.17v-14.89h6.26v25.53h-5.62l-.34-3.28h-.17c-.88,1.22-2,2.17-3.36,2.85s-2.91,1.02-4.64,1.02c-1.93,0-3.65-.45-5.15-1.34Z"/>
      <path class="cls-1" d="M553.63,457.76c-1.48-.82-2.62-1.96-3.45-3.43-.82-1.46-1.23-3.13-1.23-5v-10.34h-3.91v-5.53h4.55l1.19-4.98h4.47v4.98h11.87v5.53h-11.87v9.79c0,1.39.43,2.52,1.3,3.38.87.87,1.98,1.3,3.34,1.3h7.23v5.53h-8.47c-1.87,0-3.55-.41-5.02-1.23Z"/>
      <path class="cls-1" d="M570.95,425.93h6.26v4.47h-6.26v-4.47ZM570.95,433.46h6.26v25.53h-6.26v-25.53Z"/>
      <path class="cls-1" d="M587.14,458.33c-1.89-.92-3.36-2.21-4.43-3.85-1.06-1.64-1.6-3.53-1.6-5.66v-5.19c0-2.13.53-4.01,1.6-5.66,1.06-1.64,2.54-2.93,4.43-3.85,1.89-.92,4.05-1.38,6.49-1.38s4.6.46,6.49,1.38c1.89.92,3.36,2.21,4.43,3.85,1.06,1.65,1.6,3.53,1.6,5.66v5.19c0,2.13-.53,4.01-1.6,5.66-1.06,1.65-2.54,2.93-4.43,3.85-1.89.92-4.05,1.38-6.49,1.38s-4.6-.46-6.49-1.38ZM589.12,452.73c1.16.96,2.67,1.45,4.51,1.45s3.35-.48,4.51-1.45c1.16-.96,1.74-2.2,1.74-3.7v-5.62c0-1.5-.58-2.74-1.74-3.7-1.16-.96-2.67-1.45-4.51-1.45s-3.35.48-4.51,1.45c-1.16.96-1.74,2.2-1.74,3.7v5.62c0,1.5.58,2.74,1.74,3.7Z"/>
      <path class="cls-1" d="M610.05,433.46h5.45l.51,3.23h.17c.88-1.22,2.01-2.16,3.38-2.83,1.38-.67,2.91-1,4.62-1,1.93,0,3.65.45,5.15,1.34,1.5.89,2.67,2.14,3.49,3.72.82,1.59,1.23,3.4,1.23,5.45v15.62h-6.26v-15.02c0-1.64-.53-3.01-1.6-4.09-1.06-1.08-2.43-1.62-4.11-1.62s-3.09.55-4.17,1.66c-1.08,1.11-1.62,2.5-1.62,4.17v14.89h-6.26v-25.53Z"/>
      <path class="cls-1" d="M643.52,458.65c-1.86-.68-3.3-1.65-4.32-2.91-1.02-1.26-1.53-2.72-1.53-4.36v-1.11h6.51v1.32c0,.88.51,1.63,1.53,2.26,1.02.62,2.37.94,4.04.94,1.56,0,2.86-.27,3.89-.81,1.04-.54,1.55-1.22,1.55-2.04s-.5-1.45-1.49-1.89c-.99-.44-2.6-.96-4.81-1.55-2.3-.6-4.17-1.17-5.62-1.72s-2.7-1.35-3.77-2.4-1.6-2.41-1.6-4.09c0-2.38,1.04-4.23,3.13-5.55,2.09-1.32,4.86-1.98,8.32-1.98,2.38,0,4.47.34,6.26,1.02s3.16,1.65,4.13,2.89c.96,1.25,1.45,2.7,1.45,4.34v1.11h-6.3v-1.32c0-.85-.49-1.58-1.47-2.19s-2.31-.91-3.98-.91c-1.53,0-2.75.25-3.66.74-.91.5-1.36,1.16-1.36,1.98s.52,1.52,1.55,2c1.04.48,2.67,1.01,4.91,1.57,2.24.57,4.08,1.12,5.51,1.66,1.43.54,2.67,1.33,3.7,2.38,1.04,1.05,1.55,2.4,1.55,4.04,0,2.47-1.07,4.36-3.21,5.66-2.14,1.3-4.97,1.96-8.49,1.96-2.44,0-4.59-.34-6.45-1.02Z"/>
    </g>
  </g>
</svg>